<svg xmlns="http://www.w3.org/2000/svg" width="158.78" height="158.78" viewBox="0 0 158.78 158.78"><title>icn-courtyard</title><path d="M81.51,133.16c.19-1.8.43-3.6.56-5.41.34-4.79.81-9.59.91-14.39a120.76,120.76,0,0,0-5-38.71C77.19,72.16,73,65,73,65s-2,1.35-3.24,2.32c-3.73,3-4,7-3.88,11.52,0,1.7,0,3.41,0,5.05-2-1.23-3.73-5.89-3.47-9.82.18-2.89.78-7.52,5.41-9.88a7.72,7.72,0,0,0-3.15-1c-7.89-1.1-12.71,2.85-18.83,8.06C41.37,75,37.69,79.5,33.72,83.7c-.27.28-.53.57-1,1a28.76,28.76,0,0,1,1.49-8.61A28.08,28.08,0,0,1,44.93,61.37c8.2-5.63,15.54-5.21,21.55-2.91.25.2-2-2.29-6.78-4.18A22.81,22.81,0,0,0,46.42,53.2c-5.7,1.23-11.31,2.88-17,4.36a2.31,2.31,0,0,1-1.12.09c.94-1.19,1.81-2.45,2.83-3.56,5.45-5.88,12-9.64,20.17-9.89s14.43,3.1,19,9.78l.4.57a1.08,1.08,0,0,0,.23.1,19.72,19.72,0,0,1,1-8.73,22.43,22.43,0,0,1,13-13.64,30.05,30.05,0,0,1,19.06-1.61c.23.06.45.14.83.26-.43.22-.74.39-1.06.54-4.44,2.23-9,4.34-13.31,6.71a26.82,26.82,0,0,0-10.3,9.28,17.8,17.8,0,0,0-2.48,7.59s4.5-4.47,5.61-5.18A25.4,25.4,0,0,1,99.2,46.28c9.16.88,16.19,5.51,21.49,12.92a5.54,5.54,0,0,1,.29.51l-8.25-2.34A59.18,59.18,0,0,0,99.61,54.8c-5.24-.26-11.7-.51-19.14,3.62,3.94,1.84,6.6,5.1,8.86,7.85a14.13,14.13,0,0,1,3.11,8.31c-.71-.76-1.2-1.33-1.75-1.86-1.76-1.7-3.42-3.53-5.33-5-2.46-2-5.5-4.84-8.66-4.29.1.2,10,20.29,13,29.8A103.83,103.83,0,0,1,94.29,112c.58,4.73.79,9.51,1.14,14.27.17,2.31.28,4.63.41,6.94Z" fill="none" stroke="#252525" stroke-miterlimit="10" stroke-width="3"/><circle cx="79.39" cy="79.39" r="77.89" fill="none" stroke="#252525" stroke-miterlimit="10" stroke-width="3"/></svg>