<svg xmlns="http://www.w3.org/2000/svg" width="175.78" height="175.78" viewBox="0 0 175.78 175.78"><title>icn-phone</title><path d="M64.82,138.82c-4.86-2.07-6-3.77-6-9.21V44.82c0-5.79,2.84-8.61,8.7-8.61h40.12c6.47,0,9.17,2.66,9.17,9.07,0,28.11,0,56.22.06,84.33,0,4.63-1.63,7.7-6,9.21Zm46.44-89.93H64.52v66h46.74ZM88.07,40.77c-3.26,0-6.52,0-9.78,0-1.27,0-2,.29-2.07,1.72s.66,2,2.09,2q9.56-.08,19.11,0c1.28,0,2-.32,2.06-1.74s-.66-2-2.09-1.92C94.29,40.82,91.18,40.77,88.07,40.77ZM87.74,122a4.72,4.72,0,0,0-4.67,4.83,4.78,4.78,0,1,0,9.56-.2A4.73,4.73,0,0,0,87.74,122Z" fill="#252525"/><circle cx="87.89" cy="87.89" r="77.89" fill="none" stroke="#252525" stroke-miterlimit="10" stroke-width="20"/></svg>