<svg xmlns="http://www.w3.org/2000/svg" xmlns:xlink="http://www.w3.org/1999/xlink" width="86.88" height="86.88" viewBox="0 0 86.88 86.88"><defs><radialGradient id="a" cx="43.44" cy="43.44" r="43.44" gradientUnits="userSpaceOnUse"><stop offset="0" stop-opacity="0.5"/><stop offset="1" stop-opacity="0"/></radialGradient><linearGradient id="b" x1="43.44" y1="19.84" x2="43.44" y2="67.04" gradientUnits="userSpaceOnUse"><stop offset="0" stop-color="#927cb9"/><stop offset="1" stop-color="#a1bc75"/></linearGradient></defs><title>icn-d20_2</title><rect width="86.88" height="86.88" fill="url(#a)"/><path d="M43.9,67h-1a12.29,12.29,0,0,0-1.25-.89q-9.41-5.45-18.84-10.87v-24c.44-.2.89-.36,1.31-.6,6-3.44,11.94-6.88,17.88-10.37a2.42,2.42,0,0,1,2.8,0q9,5.31,18.1,10.48a1.9,1.9,0,0,1,1.13,1.91Q64,43.31,64.05,54A1.88,1.88,0,0,1,63,55.88c-6,3.43-12,6.92-18,10.4A12.7,12.7,0,0,0,43.9,67ZM33.2,36.17,43.44,53.93,53.68,36.17ZM45,54.72l16.82-.83L55.14,37.27ZM31.89,37.61l-.36,0C29.38,43,27.22,48.32,25,53.89l16.82.82Zm21.43-3.46L43.41,22l-9.88,12.2ZM42.5,64.56c0-2.72,0-5.11,0-7.5,0-.19-.64-.5-1-.53-2.81-.18-5.62-.35-8.43-.45-1.69-.06-3.38,0-5.19,0Zm1.83,0L59,56.08c-4.73,0-9.33.21-13.93.47-.26,0-.72.36-.73.55C44.31,59.46,44.33,61.81,44.33,64.51ZM24.63,33.3V49.38c1.94-4.33,3.71-8.69,5.44-13.06.09-.22,0-.74-.18-.81C28.2,34.76,26.48,34.06,24.63,33.3ZM62,49.42l.19-.05V33.28l-3.36,1.4c-2.38,1-2.38,1-1.43,3.34ZM26.11,31.51v.38L28.77,33c2.54,1.05,2.54,1,4.27-1.1l6.18-7.65-.17-.2Zm34.61.39v-.39q-6.45-3.74-12.91-7.46c2.38,3.34,4.92,6.5,7.49,9.63a.71.71,0,0,0,.62.2C57.53,33.24,59.12,32.57,60.72,31.9Z" fill="url(#b)"/></svg>