<svg xmlns="http://www.w3.org/2000/svg" width="158.78" height="158.78" viewBox="0 0 158.78 158.78"><title>icn-givedirectly</title><circle cx="79.39" cy="79.39" r="77.89" fill="none" stroke="#252525" stroke-miterlimit="10" stroke-width="3"/><path d="M62.22,53.37a1.9,1.9,0,0,0-.42.27c-3.55,4.69-13,3.59-16.79-2a15.8,15.8,0,0,1,.1-17.05,12.56,12.56,0,0,1,17-2.75,9,9,0,0,1,3.77,6.83c-1.59,0-3.19,0-4.78,0-.24,0-.57-.35-.67-.61a5.13,5.13,0,0,0-4.77-3.6c-2.65-.19-4.86.69-6.13,3.07a11.58,11.58,0,0,0-.14,11.1c1.26,2.5,3.55,3.47,6.29,3.3,2.48-.16,4.42-1.2,5.23-3.73.17-.53.26-1.08.45-1.87H55.74V42.11c3.4,0,6.72,0,10.05,0,.23,0,.65.54.65.84,0,4,0,8.06,0,12.1,0,.67-.26.88-.92.92C63.07,56.14,63.07,56.17,62.22,53.37Z" fill="#252525"/><path d="M116.16,48h-13.3c0,2.28.76,3.68,2.37,4.35,1.88.78,4.24.5,5.41-1a2.69,2.69,0,0,1,2.56-1c.81.05,1.63,0,2.6,0a7.85,7.85,0,0,1-2.7,4.34c-3.6,2.84-11.25,2.62-14.06-2.49C96.36,47.29,97.55,40,103.3,37.64,110.29,34.72,116.9,39.91,116.16,48Zm-13.32-3.38H111c-.43-2.71-1.7-3.9-4.06-3.87S103.17,42.07,102.84,44.57Z" fill="#252525"/><path d="M78.59,37.49a.9.9,0,0,1,.2-.07c1.61,0,3.56-.57,4.71.16s1.21,2.68,1.68,4.13c.86,2.67,1.66,5.37,2.6,8.42.3-.83.5-1.32.66-1.83,1-3.3,2.07-6.6,3-9.92.22-.75.52-1.07,1.33-1,1.25.07,2.51,0,3.93,0-.11.44-.17.8-.28,1.13C94.63,44,92.78,49.41,91,54.87c-.27.79-.61,1.22-1.55,1.14-1.5-.12-3.37.4-4.41-.32s-1.12-2.6-1.6-4q-2.25-6.5-4.46-13C78.82,38.3,78.71,37.89,78.59,37.49Z" fill="#252525"/><path d="M71.06,37.44h4.8V55.91h-4.8Z" fill="#252525"/><path d="M71.06,30.38h4.8v3.95h-4.8Z" fill="#252525"/><path d="M13.53,60.88c4.28,0,8.45-.18,12.6,0a10.12,10.12,0,0,1,9.43,7.86,17.14,17.14,0,0,1-.68,11.47,10,10,0,0,1-8.14,6.11,14.32,14.32,0,0,1-2.07.16c-3.68,0-7.36,0-11.14,0Zm5.61,20.87c1.87,0,3.63,0,5.4,0A5.45,5.45,0,0,0,29.83,78a11.89,11.89,0,0,0-.22-9,4.61,4.61,0,0,0-3.38-3c-2.3-.42-4.66-.5-7.09-.74Z" fill="#252525"/><path d="M67.86,78.46c.12,2,.58,3.6,2.47,4.37a4.78,4.78,0,0,0,5.49-1.09,2.21,2.21,0,0,1,2.09-.93c.94.06,1.89,0,3,0a7.64,7.64,0,0,1-5.18,5.68,11.16,11.16,0,0,1-7,0c-3.91-1.3-6.12-5-5.95-9.78a9.31,9.31,0,1,1,18.54,1.06c0,.29-.68.69-1,.7-3.6,0-7.2,0-10.8,0ZM76,75.13c-.2-2.62-1.7-3.94-4.22-3.89-2,0-4.06,1.8-3.79,3.89Z" fill="#252525"/><path d="M128,92.79v-4c.52,0,1,0,1.44.08,2.89.32,4-1.16,3-3.93q-2.91-7.84-5.84-15.69c-.14-.39-.27-.8-.43-1.27h5.38l4.11,12.33.3,0c.72-2.24,1.45-4.48,2.17-6.72.52-1.6,1-3.23,1.58-4.81a1.44,1.44,0,0,1,1-.78c1.43-.1,2.86,0,4.46,0-.87,2.37-1.7,4.62-2.54,6.88-1.55,4.18-3.11,8.35-4.65,12.53C136.08,92.63,133.81,93.91,128,92.79Z" fill="#252525"/><path d="M97.42,79.46h4.76a7.81,7.81,0,0,1-3,5.73c-4,3.17-13.13,2.73-15-5-1.21-4.91.8-10,4.94-11.84a10.13,10.13,0,0,1,10.26.91A6,6,0,0,1,102,74.43c-1.46,0-2.93,0-4.39,0-.24,0-.54-.45-.67-.76a3.87,3.87,0,0,0-6.66-.89c-1.74,2.22-1.8,6.72-.1,9a3.91,3.91,0,0,0,6.6-.62A15.21,15.21,0,0,0,97.42,79.46Z" fill="#252525"/><path d="M115.68,82.74v4a50,50,0,0,1-5.83-.41c-2-.36-2.89-1.65-2.91-3.72,0-3.26-.07-6.51,0-9.76,0-1.25-.34-1.74-1.59-1.56a12.05,12.05,0,0,1-1.48,0V67.94h3V62.42H112v5.4h3.64v3.47h-3.6v6.38c0,1,0,2.08,0,3.12,0,1.46.49,1.9,2,1.95C114.55,82.75,115.07,82.74,115.68,82.74Z" fill="#252525"/><path d="M118.73,60.9h5V86.52c-1.5,0-3,0-4.42,0-.23,0-.58-.65-.59-1-.06-1.86,0-3.73,0-5.59v-19Z" fill="#252525"/><path d="M54.32,86.45H49.39V68h4.67v2.93a8.05,8.05,0,0,1,4.85-3.38,7.84,7.84,0,0,1,1.29-.14c.72,0,1.11.26,1.08,1.08-.05,1.21,0,2.42,0,3.72-.51,0-.93,0-1.34,0-3-.23-5,1.22-5.36,4.19-.26,2.27-.19,4.58-.24,6.88C54.3,84.29,54.32,85.33,54.32,86.45Z" fill="#252525"/><path d="M44.93,86.47H40V68h4.89Z" fill="#252525"/><path d="M40,60.89H44.9v4H40Z" fill="#252525"/><polygon points="103.97 118.29 76.14 93.92 76.14 109.09 54.81 109.09 54.81 127.49 76.14 127.49 76.14 142.67 103.97 118.29" fill="none" stroke="#252525" stroke-miterlimit="10" stroke-width="3"/></svg>