<svg xmlns="http://www.w3.org/2000/svg" width="158.78" height="158.78" viewBox="0 0 158.78 158.78"><title>icn-target</title><path d="M82.52,139.51H76.27l-2.73-.31a60.25,60.25,0,0,1-53.6-51.15c-.27-1.77-.47-3.55-.71-5.33v-6.5a11.1,11.1,0,0,0,.24-1.28A57.25,57.25,0,0,1,24,56.1,60.12,60.12,0,0,1,139.23,85.24,60.19,60.19,0,0,1,88,138.82C86.17,139.09,84.34,139.28,82.52,139.51ZM79.33,39.18a40.18,40.18,0,1,0,40.23,40.23A40.27,40.27,0,0,0,79.33,39.18Z" fill="#252525"/><path d="M79.46,59.37A20,20,0,1,0,99.37,79.56,19.9,19.9,0,0,0,79.46,59.37Z" fill="#252525"/><path d="M79.46,59.37a20,20,0,1,1-20,20.06A19.89,19.89,0,0,1,79.46,59.37Z" fill="#252525"/><circle cx="79.39" cy="79.39" r="77.89" fill="none" stroke="#252525" stroke-miterlimit="10" stroke-width="3"/></svg>