<svg xmlns="http://www.w3.org/2000/svg" width="175.78" height="175.78" viewBox="0 0 175.78 175.78"><title>icn-pch</title><path d="M144.89,96.13c-.84,2.19-2.48,4.4-2.32,6.47.35,4.82-2.1,9.37-5.49,10-6.32,1.18-13.07,0-19.64-.24-.22,0-.41-.92-.6-1.41L111.91,98c-.47,3-1,6.6-1.6,10.2l-1.41-.15c-.26-3.37-.47-6.74-.77-10.1-.6-6.7-.33-13.67-2.13-20-2.07-7.38-3.94-15.26-10.84-20.45-1.52-1.13-1.63-4.16-2.36-6.33Q90.4,44.06,88,37l-1.83.2c-1.61,5.67-3.13,11.38-4.91,17a12.43,12.43,0,0,1-2.69,4.41C71,67,67.74,77.2,66.81,88.17c-.55,6.52-.1,13.13-.1,19.7l-2.2.08q-.83-5.24-1.63-10.47a6.88,6.88,0,0,0-1.22,4c-.63,9-3.46,11.67-12.42,11.66-2.87,0-5.81.39-8.6-.1-2-.35-4.8-1.37-5.57-2.92-2.18-4.42-3.51-9.27-5.19-14-3.36,4.39-1.85,11.36-6.57,15.34a68.25,68.25,0,0,0,45.31,43.89c5.24,0,13.58,2.54,18.83,2.54,7.67,0,12.25-2.54,19.92-2.54a68.28,68.28,0,0,0,45.1-43.26C146.44,108.7,148.77,100.44,144.89,96.13Zm-61.3-3.24c.15-1.39,2.56-3.74,3.57-3.56,1.6.28,3.91,2.19,4.11,3.65.55,4.16.19,8.45.19,13.28h-8C83.41,101.62,83.11,97.21,83.59,92.89ZM92,146.41H82.89c0-5.3-.31-10.59.21-15.78.14-1.32,3-3.31,4.5-3.26s4,2.19,4.2,3.62C92.32,135.9,92,140.9,92,146.41ZM84.55,73.46a3.68,3.68,0,0,1,2.68-2.06c1.2.17,2.93,1.27,3.08,2.12.42,2.41.15,4.9.15,7.7h-6A56.93,56.93,0,0,1,84.55,73.46Z" fill="#252525"/><circle cx="87.89" cy="87.89" r="77.89" fill="none" stroke="#252525" stroke-miterlimit="10" stroke-width="20"/></svg>