<svg xmlns="http://www.w3.org/2000/svg" width="30.03" height="30.03" viewBox="0 0 30.03 30.03"><title>icn-i-close</title><path d="M15,1A14,14,0,1,0,29,15,14,14,0,0,0,15,1Zm5.68,19.69h0a1.18,1.18,0,0,1-1.65,0l-4-4-4,4a1.18,1.18,0,0,1-1.65,0h0a1.18,1.18,0,0,1,0-1.65l4-4-4-4a1.18,1.18,0,0,1,0-1.65h0a1.18,1.18,0,0,1,1.65,0l4,4,4-4A1.17,1.17,0,1,1,20.69,11l-4,4,4,4A1.18,1.18,0,0,1,20.69,20.69Z" fill="#fff" opacity="0.65"/><circle cx="15.01" cy="15.01" r="14.01" fill="none" stroke="#fff" stroke-miterlimit="10" stroke-width="2"/></svg>