<svg xmlns="http://www.w3.org/2000/svg" width="158.78" height="158.78" viewBox="0 0 158.78 158.78"><title>icn-amazon</title><path d="M81.84,32l1.68.16a33.07,33.07,0,0,1,13,3.61,18.34,18.34,0,0,1,7.91,7.92,21,21,0,0,1,1.94,6.47,71.29,71.29,0,0,1,.42,10.33q0,11.69,0,23.36a16.67,16.67,0,0,0,3.75,10.57,22,22,0,0,1,1.46,2,6,6,0,0,1,.63,1.55,1.82,1.82,0,0,1-.64,1.88c-1.78,1.55-3.58,3.08-5.36,4.62s-3.27,2.86-4.91,4.29a3,3,0,0,1-3.24.69,2,2,0,0,1-.5-.3,31.54,31.54,0,0,1-7-8c-.2-.32-.43-.63-.65-1-1,.9-1.86,1.8-2.8,2.65a27.58,27.58,0,0,1-8.75,5.61,22.27,22.27,0,0,1-6.53,1.43,51.32,51.32,0,0,1-6.07.15C60.76,109.76,56,108,52.3,103.85a19.23,19.23,0,0,1-4.44-9.12,28.09,28.09,0,0,1-.31-9.93A22.46,22.46,0,0,1,58.37,68.27a32,32,0,0,1,9.55-3.81,80.07,80.07,0,0,1,10.42-1.75c3-.33,5.92-.64,8.88-1,.29,0,.36-.14.36-.42,0-1.91,0-3.82-.06-5.73A10.56,10.56,0,0,0,86,50.17a7.61,7.61,0,0,0-4.8-3.29,12.06,12.06,0,0,0-10.13,1.73,9.27,9.27,0,0,0-3.78,5.82A3.69,3.69,0,0,1,66,56.75a1.91,1.91,0,0,1-1.44.41l-9.85-1.08c-1-.11-2-.21-3-.33a2.4,2.4,0,0,1-2.16-2.84,23.08,23.08,0,0,1,10.77-16A30.89,30.89,0,0,1,71.9,32.68c2-.32,4-.45,5.95-.67.12,0,.24,0,.35-.06Zm5.73,40.72c-.24,0-.42,0-.6,0-1.78.1-3.56.15-5.32.32a22.88,22.88,0,0,0-7.13,1.8A11.2,11.2,0,0,0,68,81.61a14.76,14.76,0,0,0-.24,8.63,7.9,7.9,0,0,0,3,4.61,8.42,8.42,0,0,0,8.39.77,12,12,0,0,0,6-5.62,20.47,20.47,0,0,0,2.42-9.78c.07-2.34,0-4.69,0-7C87.58,73,87.57,72.88,87.57,72.67Z" fill="#252525"/><path d="M29.89,107.06c.42-.64.85-.73,1.58-.35,2.31,1.22,4.59,2.51,7,3.63a96.08,96.08,0,0,0,22.1,7.33,98.63,98.63,0,0,0,10.25,1.55,96.6,96.6,0,0,0,14.13.36,97.89,97.89,0,0,0,27.61-5.48c1.74-.62,3.46-1.33,5.18-2a2,2,0,0,1,1.71,0,1.28,1.28,0,0,1,.53,1.91,3.29,3.29,0,0,1-.75.74,57.23,57.23,0,0,1-13.1,7,75,75,0,0,1-13.79,3.88,73.48,73.48,0,0,1-40.13-3.91,71.86,71.86,0,0,1-21.69-13.44,4.65,4.65,0,0,1-.58-.73Z" fill="#252525"/><path d="M121.58,104.52a20.36,20.36,0,0,1,5.53.66c1.41.42,1.74.86,1.77,2.35a17.76,17.76,0,0,1-.72,5,21.07,21.07,0,0,1-4.06,8.12c-.51.61-1.11,1.15-1.68,1.72a2,2,0,0,1-.46.3.72.72,0,0,1-.85,0c-.26-.23-.19-.53-.09-.81s.26-.66.38-1a48.35,48.35,0,0,0,2.52-7.66,15.36,15.36,0,0,0,.28-2.7,1.48,1.48,0,0,0-1.14-1.61,15.21,15.21,0,0,0-2.75-.47,42.13,42.13,0,0,0-7,.36l-2.08.23c-.32,0-.66,0-.83-.31a.66.66,0,0,1,.23-.85,10.57,10.57,0,0,1,1.53-1,18.41,18.41,0,0,1,7.13-2.12C120.17,104.61,121.06,104.56,121.58,104.52Z" fill="#252525"/><circle cx="79.39" cy="79.39" r="77.89" fill="none" stroke="#252525" stroke-miterlimit="10" stroke-width="3"/></svg>