<svg xmlns="http://www.w3.org/2000/svg" width="158.78" height="158.78" viewBox="0 0 158.78 158.78"><title>icn-lds</title><path d="M79.39,146.61a73.24,73.24,0,0,0,61.76-33.84H104.72v-5H93v-12H82.57V50H81.15V48.09H78.37v-14H76.71V31.43H76.1V30.07h-.44V28.38h-.23V28h.46V26.78h-.36c0-.24-.1-.6-.18-1a.54.54,0,0,0,.31-.47V20.68a.55.55,0,0,0-.33-.48l3.54-2.63h.49l-.5-.74-.12.52-3.21,2.38a.43.43,0,0,0,0-.11.61.61,0,1,0-1.19,0,.76.76,0,0,0,.23.56.56.56,0,0,0-.38.5v3.75a3.08,3.08,0,0,0-.22.88,1.36,1.36,0,0,0,.22,1,2.94,2.94,0,0,1-.19.52h-.41V28h.48v.36h-.34v1.69h-.36v1.36H72.8v2.66H71.1v14H68.57V50H67.51V95.76H57.23v12H45.89v5H17.63A73.24,73.24,0,0,0,79.39,146.61Z" fill="none" stroke="#252525" stroke-miterlimit="10" stroke-width="3"/><circle cx="79.39" cy="79.39" r="77.89" fill="none" stroke="#252525" stroke-miterlimit="10" stroke-width="3"/></svg>