<svg xmlns="http://www.w3.org/2000/svg" width="158.78" height="158.78" viewBox="0 0 158.78 158.78"><title>icn-crateAndBarrel</title><path d="M33.5,47.61c.62.12,1.25.21,1.87.34A15.89,15.89,0,0,1,47.72,61.12a2.39,2.39,0,0,1,0,.27h-4c-.5,0-1.11.15-1.47-.08s-.39-.84-.57-1.29a10.27,10.27,0,0,0-9.78-6.57,10,10,0,0,0-9.64,8.62,9.82,9.82,0,0,0,6.37,10.82,10.12,10.12,0,0,0,12.28-4.16c.27-.46.43-1,.68-1.47a.6.6,0,0,1,.4-.32c1.76,0,3.52,0,5.27,0a1.44,1.44,0,0,1,.28.08c-.28.95-.48,1.92-.85,2.83-1.82,4.52-5.26,7.26-9.79,8.79-8.76,3-18.72-3.35-20.26-12.14-.09-.53-.17-1.07-.25-1.6V62.42a4.1,4.1,0,0,0,.1-.48A15.63,15.63,0,0,1,27.76,48.28c1.07-.3,2.18-.45,3.27-.67Z" fill="#252525"/><path d="M42.93,80.9c.18,0,.29,0,.4,0,4.58,0,9.16,0,13.74,0a9.62,9.62,0,0,1,6,2c3,2.4,3.37,7.41.65,10a16.57,16.57,0,0,1-2.17,1.48l-.44.28.78.37c5.12,2.35,5.85,8.73,3.46,11.92a8.6,8.6,0,0,1-7.08,3.59c-4.94.06-9.87,0-14.81,0-.45,0-.56-.15-.56-.57q0-14.28,0-28.55C42.9,81.28,42.92,81.11,42.93,80.9ZM48.47,106c2.24,0,4.41.06,6.57,0a7.49,7.49,0,0,0,2.6-.57,3.68,3.68,0,0,0,2.42-4.15c-.23-2.22-1.22-3.41-3.26-3.85a7,7,0,0,0-1.44-.15c-2.15,0-4.3,0-6.45,0a3.59,3.59,0,0,0-.44,0Zm-.1-13.24a1,1,0,0,0,.19.06c2.31,0,4.63,0,6.94-.07A5.5,5.5,0,0,0,57.81,92a3.25,3.25,0,0,0,1.63-3.33,2.8,2.8,0,0,0-2-2.56,9.32,9.32,0,0,0-2.71-.54c-2-.08-3.92,0-5.88,0l-.52,0Z" fill="#252525"/><path d="M22.55,93.81c-.6-.89-1.21-1.72-1.73-2.61a6.36,6.36,0,0,1-.69-4.88,5.29,5.29,0,0,1,3.45-4,8.16,8.16,0,0,1,5.74,0,6.36,6.36,0,0,1,1.89,10.85c-.48.4-1,.77-1.49,1.16l-.63.5,3.26,4.5A11.62,11.62,0,0,0,34,95.1h4.26c-.48,2.74-1.08,5.39-2.87,7.59-.21.26-.11.39,0,.59,1.28,1.66,2.54,3.32,3.8,5,.12.15.24.31.4.54-.2,0-.33,0-.46,0H34.45a.77.77,0,0,1-.7-.35c-.53-.7-1.08-1.38-1.66-2.1l-.49.41a12.3,12.3,0,0,1-5.27,2.44c-.93.18-1.93,0-2.88.06-2.46.24-6.13-2-6.95-5.25a7.73,7.73,0,0,1,1.94-7.31,11.13,11.13,0,0,1,3.91-2.84Zm6.89,9.09-4.3-5.66a11.5,11.5,0,0,0-3.38,3.13,2.71,2.71,0,0,0-.12,3.13,3.14,3.14,0,0,0,3.05,1.6A9.08,9.08,0,0,0,29.44,102.9Zm-3-11.34a7.89,7.89,0,0,0,2.36-2.27,2.32,2.32,0,0,0-.59-3,2.44,2.44,0,0,0-3.07.06,2,2,0,0,0-.43,2.84A27.89,27.89,0,0,0,26.45,91.56Z" fill="none" stroke="#252525" stroke-miterlimit="10" stroke-width="1.77"/><path d="M97.82,69.33a4.38,4.38,0,0,0,.8,2.59,6,6,0,0,0,6.17,2.35,4.68,4.68,0,0,0,2.82-2,.85.85,0,0,1,.82-.42c1.74,0,3.48,0,5.31,0a6.49,6.49,0,0,1-.21.82,9.89,9.89,0,0,1-8.09,6.53A11.28,11.28,0,0,1,92.26,69a11.56,11.56,0,0,1,3.08-9.81,10.15,10.15,0,0,1,7.71-3.13c6,0,9.41,4.07,10.51,9,.3,1.35.38,2.76.57,4.24Zm9.86-4.22a4.21,4.21,0,0,0-2.07-3.82,5,5,0,0,0-5.41,0,4.22,4.22,0,0,0-2.12,3.79Z" fill="#252525"/><path d="M136.55,101H120.27a4.43,4.43,0,0,0,1,2.92,6,6,0,0,0,6.45,1.82,4.43,4.43,0,0,0,2.27-1.82.77.77,0,0,1,.45-.34c1.85,0,3.69,0,5.67,0a14.09,14.09,0,0,1-.53,1.52,9.9,9.9,0,0,1-7.82,5.77,11.24,11.24,0,0,1-13-9.66,11.76,11.76,0,0,1,1.88-8.92A10.06,10.06,0,0,1,127,87.93c5,.71,7.66,4,8.87,8.63A38.58,38.58,0,0,1,136.55,101Zm-16-4.21h9.52a4.46,4.46,0,0,0-4.72-4.52C122.65,92.26,120.39,94.36,120.58,96.76Z" fill="#252525"/><path d="M61.63,63.51a6.29,6.29,0,0,1,3-5.59A10.18,10.18,0,0,1,69,56.54a14.77,14.77,0,0,1,7.07.7,6.29,6.29,0,0,1,4.33,6.28c0,3.27,0,6.54,0,9.81a15.45,15.45,0,0,0,.8,5.57,5,5,0,0,1-.5,0c-1.49,0-3,0-4.48,0-.39,0-.58-.1-.63-.5s-.18-.79-.29-1.26l-.87.59a10,10,0,0,1-10.63.47,6.28,6.28,0,0,1-.44-10.92,13,13,0,0,1,5.81-1.88c1.37-.18,2.74-.33,4.1-.59,1.06-.2,1.56-.75,1.61-1.6a2.29,2.29,0,0,0-.77-1.74,4.48,4.48,0,0,0-3.45-1.18,7,7,0,0,0-1.28.13A3.26,3.26,0,0,0,66.71,63c-.06.18-.1.35-.15.53ZM74.48,68c-.93.22-1.79.38-2.62.63-1.62.49-3.25,1-4.83,1.57a2.32,2.32,0,0,0-1.55,2.43,2.5,2.5,0,0,0,1.89,2.27A6.71,6.71,0,0,0,73,74a2.48,2.48,0,0,0,.66-.67C74.84,71.69,74.63,69.87,74.48,68Z" fill="#252525"/><path d="M88.19,110.55c-1.81,0-3.53,0-5.25,0-.12,0-.3-.23-.35-.38-.13-.42-.21-.86-.32-1.35-.31.21-.56.4-.83.57a9.93,9.93,0,0,1-10.62.48A6.23,6.23,0,0,1,70.44,99a12.69,12.69,0,0,1,5.43-1.79l3.49-.46a5.79,5.79,0,0,0,.83-.16c1.88-.49,2.29-2,.88-3.31a3.49,3.49,0,0,0-1.66-.95,9.66,9.66,0,0,0-2.89-.11,3.12,3.12,0,0,0-2.7,2.56c0,.17-.21.42-.32.42-1.56,0-3.13,0-4.75,0a6.12,6.12,0,0,1,1.22-4,7.37,7.37,0,0,1,4.6-2.66,14.63,14.63,0,0,1,8.49.49,6,6,0,0,1,4.14,4.87,21.73,21.73,0,0,1,.13,2.91c0,2.41,0,4.83,0,7.23A16.09,16.09,0,0,0,88.19,110.55ZM82,99.58c-2,.53-3.84,1-5.72,1.56a8.1,8.1,0,0,0-1.77.82,2.43,2.43,0,0,0,.53,4.52,6.63,6.63,0,0,0,4.54-.27,3.36,3.36,0,0,0,2.39-2.91A30.57,30.57,0,0,0,82,99.58Z" fill="#252525"/><path d="M83.53,60.64h-2.8V56.4h2.79V49.77h5.7v6.78H93v4.07H89.27c0,.24,0,.44,0,.63V72.36a2.09,2.09,0,0,0,2.23,2.42c.57,0,1.16,0,1.73,0,.14,0,.38.2.38.32,0,1.28,0,2.57,0,3.86a1.48,1.48,0,0,1-.26.07c-1.7,0-3.4,0-5.1,0a4.67,4.67,0,0,1-4.71-5c0-4.22,0-8.45,0-12.67Z" fill="#252525"/><path d="M94.76,110.53H89.05V88.77H94.7V91c1.89-2,3.86-3.41,6.69-2.81v5.13a19.31,19.31,0,0,0-2.41,0,4.3,4.3,0,0,0-3.54,2.82,10.16,10.16,0,0,0-.65,4.12q0,4.93,0,9.87A4,4,0,0,1,94.76,110.53Z" fill="#252525"/><path d="M48.8,78.91V57.07h5.55v2.12c1.89-1.93,3.88-3.35,6.71-2.76v5.13a16.87,16.87,0,0,0-2.36,0c-2.13.29-3.55,1.79-4,4.19a17.19,17.19,0,0,0-.23,2.78c0,3.31,0,6.61,0,9.92,0,.13,0,.26,0,.44Z" fill="#252525"/><path d="M108.3,90.88c3.49-2.83,4.39-3.19,6.82-2.74v5.14a19.41,19.41,0,0,0-2.53,0A4.32,4.32,0,0,0,109,96.18a10,10,0,0,0-.61,4c0,3.33,0,6.65,0,10,0,.09,0,.18,0,.32H102.8V88.78h5.5Z" fill="#252525"/><path d="M142.53,81.05v29.46h-5.08V81.05Z" fill="#252525"/><circle cx="79.39" cy="79.39" r="77.89" fill="none" stroke="#252525" stroke-miterlimit="10" stroke-width="3"/></svg>