<svg xmlns="http://www.w3.org/2000/svg" xmlns:xlink="http://www.w3.org/1999/xlink" width="41.22" height="47.2" viewBox="0 0 41.22 47.2"><defs><linearGradient id="a" x1="20.61" x2="20.61" y2="47.2" gradientUnits="userSpaceOnUse"><stop offset="0" stop-color="#838195"/><stop offset="1" stop-color="#a1ab80"/></linearGradient></defs><title>icn-d20</title><path d="M21.07,47.2h-1a12.29,12.29,0,0,0-1.25-.89Q9.44,40.86,0,35.44v-24c.44-.2.89-.36,1.31-.6C7.28,7.39,13.25,4,19.19.46a2.42,2.42,0,0,1,2.8,0q9,5.31,18.1,10.48a1.9,1.9,0,0,1,1.13,1.91q-.06,10.65,0,21.3A1.89,1.89,0,0,1,40.13,36c-6,3.43-12,6.92-18,10.4C21.75,46.66,21.42,47,21.07,47.2ZM10.36,16.33,20.61,34.09,30.85,16.33ZM22.21,34.88,39,34.05,32.31,17.43ZM9.06,17.77l-.36.05C6.55,23.15,4.39,28.48,2.14,34.05L19,34.87Zm21.43-3.46L20.58,2.11,10.7,14.31ZM19.67,44.72c0-2.72,0-5.11-.05-7.5,0-.19-.64-.5-1-.53-2.81-.18-5.62-.35-8.43-.45-1.69-.06-3.38,0-5.19,0Zm1.83,0,14.69-8.43c-4.73,0-9.33.21-13.93.47-.26,0-.72.36-.73.56C21.48,39.62,21.5,42,21.5,44.67ZM1.8,13.46V29.54c1.94-4.32,3.71-8.69,5.44-13.06.09-.22,0-.74-.18-.81C5.37,14.92,3.65,14.22,1.8,13.46ZM39.19,29.58l.19,0V13.45L36,14.84c-2.38,1-2.38,1-1.43,3.34ZM3.28,11.67v.38l2.65,1.12c2.54,1.05,2.54,1,4.27-1.09l6.18-7.66-.17-.2Zm34.61.39v-.39L25,4.21c2.38,3.35,4.92,6.5,7.49,9.63a.7.7,0,0,0,.62.2C34.7,13.4,36.29,12.73,37.89,12.06Z" fill="url(#a)"/></svg>