<svg xmlns="http://www.w3.org/2000/svg" width="158.78" height="158.78" viewBox="0 0 158.78 158.78"><title>icn-dinner</title><circle cx="79.39" cy="79.39" r="77.89" fill="none" stroke="#252525" stroke-miterlimit="10" stroke-width="3"/><path d="M123.3,44.47a30.53,30.53,0,0,0-2-6.46c-.91-2.23-3.29-2.54-5-.81-3.67,3.63-7.31,7.29-11,10.94L43.11,110.28a16.81,16.81,0,0,1-1.4,1.4,3.45,3.45,0,0,0,0,5c1.85,1.76,3.62,3.61,5.45,5.39,1.6,1.55,3.34,1.55,4.85-.06q9.06-9.7,18.08-19.45,8.37-9,16.7-18a2.89,2.89,0,0,1,2.86-1c2.3.34,4.64.41,7,.58A6.62,6.62,0,0,0,101.93,82c5.16-5.18,10.4-10.29,15.46-15.56a24,24,0,0,0,5.26-9.58A46.27,46.27,0,0,0,123.3,44.47Z" fill="none" stroke="#252525" stroke-miterlimit="10" stroke-width="3"/><path d="M63.4,78.45c1.91.39,3.67-.6,5.3-2.37,2.4-2.62,5-5.13,7.55-7.56,2.42-2.25,2.38-4.95,2-7.88-.67-4.61-3.49-7.83-6.64-10.92-4.61-4.51-9.13-9.1-13.68-13.66-1-1-2-1.65-3.52-1.14a2.37,2.37,0,0,0-1.16,3.9c2.62,2.79,5.36,5.48,8.06,8.2,2.08,2.1,4.18,4.18,6.26,6.28a9.18,9.18,0,0,1,1.11,1.3c1.53,2.22.51,3.66-.62,4.81a3.71,3.71,0,0,1-5-.24c-2.51-2.6-5.1-5.12-7.66-7.67-2.31-2.3-4.6-4.63-7-6.89-1.57-1.51-3.77-1.21-4.58.7A2.8,2.8,0,0,0,44,47.72c2.05,2.36,4.27,4.57,6.46,6.8,2.57,2.61,5.18,5.19,7.76,7.78a11.88,11.88,0,0,1,1.08,1.17,3.46,3.46,0,0,1-.33,5,4.09,4.09,0,0,1-5.13-.26c-4.7-4.84-9.51-9.56-14.29-14.32-1.32-1.31-2.33-1.52-3.63-.79S33.75,55.7,35.05,57c2.49,2.43,4.88,5,7.33,7.42q4.74,4.77,9.52,9.51A15.07,15.07,0,0,0,63.4,78.45Z" fill="none" stroke="#252525" stroke-miterlimit="10" stroke-width="3"/><path d="M123.63,114.81a11.29,11.29,0,0,0-1.33-2.17c-6-6-12-12-17.93-18-1.25-1.25-2.43-2.56-3.74-3.74a2.94,2.94,0,0,0-1.72-.65C96.45,90.1,94,90,91.51,90a3,3,0,0,0-1.87.6c-1.29,1.19-2.42,2.56-3.67,3.8-.68.68-.53,1.13.1,1.75q13.14,13.1,26.24,26.23a3.12,3.12,0,0,0,4.78,0c1.76-1.73,3.54-3.46,5.22-5.27A11.94,11.94,0,0,0,123.63,114.81Z" fill="none" stroke="#252525" stroke-miterlimit="10" stroke-width="3"/></svg>