<svg xmlns="http://www.w3.org/2000/svg" width="158.78" height="158.78" viewBox="0 0 158.78 158.78"><title>icn-phone-line_1</title><path d="M56.32,130.32c-4.86-2.07-6-3.77-6-9.21V36.32c0-5.79,2.84-8.61,8.7-8.61q20.06,0,40.12,0c6.47,0,9.17,2.66,9.17,9.07,0,28.11,0,56.22.06,84.33,0,4.63-1.63,7.7-6,9.21ZM99.76,40.39H59v66H99.76ZM79.24,113.45a4.72,4.72,0,0,0-4.67,4.83,4.78,4.78,0,1,0,9.56-.2A4.73,4.73,0,0,0,79.24,113.45Z" fill="none" stroke="#252525" stroke-miterlimit="10" stroke-width="3"/><circle cx="79.39" cy="79.39" r="77.89" fill="none" stroke="#252525" stroke-miterlimit="10" stroke-width="3"/></svg>