<svg xmlns="http://www.w3.org/2000/svg" width="30.21" height="30.21" viewBox="0 0 30.21 30.21"><title>icn-i</title><path d="M15.1,0A15.11,15.11,0,1,0,30.21,15.1,15.1,15.1,0,0,0,15.1,0Zm0,29.12a14,14,0,1,1,14-14A14,14,0,0,1,15.1,29.12Z" fill="none"/><path d="M15.1,1.09a14,14,0,1,0,14,14A14,14,0,0,0,15.1,1.09Zm1,22.07a1.06,1.06,0,0,1-1.17.92,1.06,1.06,0,0,1-1.16-.92v-9.4a1.06,1.06,0,0,1,1.16-.92,1.06,1.06,0,0,1,1.17.92ZM14.92,10.83a1.75,1.75,0,1,1,1.76-1.75A1.76,1.76,0,0,1,14.92,10.83Z" fill="#fff" opacity="0.65"/><circle cx="15.1" cy="15.1" r="14.01" fill="none" stroke="#fff" stroke-miterlimit="10" stroke-width="2"/></svg>