<svg xmlns="http://www.w3.org/2000/svg" width="158.78" height="158.78" viewBox="0 0 158.78 158.78"><title>icn-pch-line_1</title><path d="M142,110.92a29.92,29.92,0,0,0,2-7.33c.33-2.69.84-15.82-5.16-15.71-3,.06-4.49,4.15-4.74,6.22-.58,4.79-2.1,9.37-5.49,10-6.32,1.18-8.66,1-12.64-.24a6.25,6.25,0,0,1-1.81-2c-.72-4.34.27-12.18-3.21-12.21-3,0-2.32,7.63-2.44,10.11-.47,0-7.61-.07-8.08-.12-.26-3.37-.47-6.74-.77-10.1-.6-6.7-.33-13.67-2.13-20C95.43,62.07,93.56,54.19,86.66,49c-1.52-1.13-1.63-4.16-2.36-6.33q-2.4-7.11-4.77-14.22l-1.83.2c-1.61,5.67-3.13,11.38-4.91,17a12.43,12.43,0,0,1-2.69,4.41C62.48,58.48,59.24,68.7,58.31,79.67c-.55,6.52-.1,13.13-.1,19.7-.74,0-7.47.06-8.2.08-.55-3.49.72-10.53-2.72-10.53-2.74,0-2.78,8-2.84,11.7,0,.93.77,4-3.71,4-2.87,0-5.81.39-8.6-.1-2-.35-4.8-1.37-5.57-2.92-2.18-4.42-1.46-13.68-6.48-13.73-5.34,0-5.52,12.53-5.28,15.08a27,27,0,0,0,1.33,6.09m59-24.66c.15-1.39,2.56-3.74,3.57-3.56,1.6.28,3.91,2.19,4.11,3.65.55,4.16.19,8.45.19,13.28h-8C74.91,93.12,74.61,88.71,75.09,84.39Zm8.41,44.52H74.39c0-5.3-.31-10.59.21-15.78.14-1.32,3-3.31,4.5-3.26s4,2.19,4.2,3.62C83.82,118.4,83.5,123.4,83.5,128.91ZM76.05,65a3.68,3.68,0,0,1,2.68-2.06c1.2.17,2.93,1.27,3.08,2.12.42,2.41.15,4.9.15,7.7h-6A56.93,56.93,0,0,1,76.05,65Z" fill="none" stroke="#252525" stroke-miterlimit="10" stroke-width="3"/><circle cx="79.39" cy="79.39" r="77.89" fill="none" stroke="#252525" stroke-miterlimit="10" stroke-width="3"/></svg>