<svg xmlns="http://www.w3.org/2000/svg" width="158.78" height="158.78" viewBox="0 0 158.78 158.78"><title>icn-dancing</title><circle cx="79.39" cy="79.39" r="77.89" fill="none" stroke="#252525" stroke-miterlimit="10" stroke-width="3"/><path d="M78.15,51.92C79.82,54,81.44,56,83,58.05A109.23,109.23,0,0,1,98.23,85.87a7.18,7.18,0,0,1,.24,3.71c-1.31,6.74-.47,13.31,1.36,19.81a65.9,65.9,0,0,0,7.24,16.19,6.12,6.12,0,0,1,0,6.81,6,6,0,0,1-5.82,2.92,6.09,6.09,0,0,1-4.84-3.16A82.1,82.1,0,0,1,87.82,113a66.13,66.13,0,0,1-2.6-16.54,5.7,5.7,0,0,0-.39-2.3c-1.82,1.58-3.76,3.05-5.44,4.77-4.33,4.43-6.87,9.66-6.52,16,.22,4.08,1.71,7.78,3.49,11.39a6.19,6.19,0,0,1-2.71,8.35,6.06,6.06,0,0,1-8.18-2.38c-5.95-11.07-7.36-22.33-1.16-33.85a44.72,44.72,0,0,1,7.71-10,2.08,2.08,0,0,0,.45-1.82A79.9,79.9,0,0,0,61.28,69.21c-1.15,1-2.23,2-3.38,2.86-6.76,5.21-15.12,4.54-21-1.73A58.79,58.79,0,0,1,32,64.41a3.27,3.27,0,0,1,.24-4c.93-1.29,2.24-2.05,3.68-1.57a9,9,0,0,1,3.09,2.24c1.79,1.72,3.34,3.72,5.25,5.29a6.32,6.32,0,0,0,7.56.45,18.79,18.79,0,0,0,4-3.43c5.08-5.4,9.73-11.28,15.26-16.16,4.93-4.34,11.08-6.13,17.7-3.31a13.64,13.64,0,0,1,7.32,7.36A105.69,105.69,0,0,1,99.92,62.6a3.91,3.91,0,0,1-2.85,4.47A4,4,0,0,1,92.28,64a82.93,82.93,0,0,0-2.69-8.63C87.61,50.49,82.94,49.1,78.15,51.92Z" fill="none" stroke="#252525" stroke-miterlimit="10" stroke-width="3"/><path d="M52.56,35a10.74,10.74,0,1,1-.2,21.47A10.47,10.47,0,0,1,41.8,45.8,10.44,10.44,0,0,1,52.56,35Z" fill="none" stroke="#252525" stroke-miterlimit="10" stroke-width="3"/><path d="M134.59,52.2a4.59,4.59,0,0,1,.27,1.06q0,8.72,0,17.41c0,2.71-1.91,4.6-4.83,4.89a5.15,5.15,0,0,1-5.44-3.8c-.6-2.59,1.58-5.27,4.45-5.49a5.56,5.56,0,0,1,4.69,1.7V58.63l-15,1.94v1.06c0,4.79,0,9.58,0,14.37a4.91,4.91,0,0,1-4.87,4.75,5,5,0,0,1-5.45-4.11,4.84,4.84,0,0,1,4.72-5.22,5.83,5.83,0,0,1,4.49,1.73c0-.47.07-.79.07-1.11V55.77c0-1.42,0-1.44,1.43-1.62l13.57-1.76a6.22,6.22,0,0,0,.71-.19Zm-15.8,7.32,15-2V53.32l-15,1.93c0,.31,0,.56,0,.81C118.78,57.16,118.79,58.27,118.79,59.52Zm10.91,15,.08.15a16.44,16.44,0,0,0,2.42-1,3.26,3.26,0,0,0,1.58-3.48,4,4,0,0,0-3.35-3,4.15,4.15,0,0,0-4.8,2.89,3.6,3.6,0,0,0,3,4.18A10.78,10.78,0,0,0,129.7,74.54Zm-16-2.23a12.58,12.58,0,0,0-2.32.75,3.35,3.35,0,0,0,0,6,4.45,4.45,0,0,0,4.45.07,3.37,3.37,0,0,0,2-3,3.29,3.29,0,0,0-1.86-3.08A14.89,14.89,0,0,0,113.67,72.31Z" fill="#252525" stroke="#252525" stroke-miterlimit="10" stroke-width="1.5"/></svg>