<svg xmlns="http://www.w3.org/2000/svg" width="969.13" height="1247.8" viewBox="0 0 969.13 1247.8"><title>layer-lds</title><polygon points="432.77 675.68 432.77 630.35 421.1 630.35 421.1 687.35 478.1 687.35 478.1 675.68 432.77 675.68" fill="none" stroke="#e7d6e1" stroke-miterlimit="10" stroke-width="2.85"/><polygon points="432.77 570.77 478.1 570.77 478.1 559.1 421.1 559.1 421.1 616.1 432.77 616.1 432.77 570.77" fill="none" stroke="#e7d6e1" stroke-miterlimit="10" stroke-width="2.85"/><polygon points="537.68 570.77 537.68 616.1 549.35 616.1 549.35 559.1 492.35 559.1 492.35 570.77 537.68 570.77" fill="none" stroke="#e7d6e1" stroke-miterlimit="10" stroke-width="2.85"/><polygon points="537.68 675.68 492.35 675.68 492.35 687.35 549.35 687.35 549.35 630.35 537.68 630.35 537.68 675.68" fill="none" stroke="#e7d6e1" stroke-miterlimit="10" stroke-width="2.85"/><polygon points="464.3 602.3 506.15 602.3 506.15 616.1 517.29 616.1 517.29 591.16 453.16 591.16 453.16 616.1 464.3 616.1 464.3 602.3" fill="none" stroke="#e7d6e1" stroke-miterlimit="10" stroke-width="2.85"/><polygon points="506.15 644.15 464.3 644.15 464.3 630.35 453.16 630.35 453.16 655.29 517.29 655.29 517.29 630.35 506.15 630.35 506.15 644.15" fill="none" stroke="#e7d6e1" stroke-miterlimit="10" stroke-width="2.85"/><polygon points="572.12 675.68 572.12 630.35 560.45 630.35 560.45 687.35 617.45 687.35 617.45 675.68 572.12 675.68" fill="none" stroke="#e7d6e1" stroke-miterlimit="10" stroke-width="2.85"/><polygon points="572.12 570.77 617.45 570.77 617.45 559.1 560.45 559.1 560.45 616.1 572.12 616.1 572.12 570.77" fill="none" stroke="#e7d6e1" stroke-miterlimit="10" stroke-width="2.85"/><polygon points="677.04 570.77 677.04 616.1 688.7 616.1 688.7 559.1 631.7 559.1 631.7 570.77 677.04 570.77" fill="none" stroke="#e7d6e1" stroke-miterlimit="10" stroke-width="2.85"/><polygon points="677.04 675.68 631.7 675.68 631.7 687.35 688.7 687.35 688.7 630.35 677.04 630.35 677.04 675.68" fill="none" stroke="#e7d6e1" stroke-miterlimit="10" stroke-width="2.85"/><polygon points="603.65 602.3 645.51 602.3 645.51 616.1 656.64 616.1 656.64 591.16 592.52 591.16 592.52 616.1 603.65 616.1 603.65 602.3" fill="none" stroke="#e7d6e1" stroke-miterlimit="10" stroke-width="2.85"/><polygon points="645.51 644.15 603.65 644.15 603.65 630.35 592.52 630.35 592.52 655.29 656.64 655.29 656.64 630.35 645.51 630.35 645.51 644.15" fill="none" stroke="#e7d6e1" stroke-miterlimit="10" stroke-width="2.85"/><polygon points="711.77 675.68 711.77 630.35 700.1 630.35 700.1 687.35 757.1 687.35 757.1 675.68 711.77 675.68" fill="none" stroke="#e7d6e1" stroke-miterlimit="10" stroke-width="2.85"/><polygon points="711.77 570.77 757.1 570.77 757.1 559.1 700.1 559.1 700.1 616.1 711.77 616.1 711.77 570.77" fill="none" stroke="#e7d6e1" stroke-miterlimit="10" stroke-width="2.85"/><polygon points="816.68 570.77 816.68 616.1 828.35 616.1 828.35 559.1 771.35 559.1 771.35 570.77 816.68 570.77" fill="none" stroke="#e7d6e1" stroke-miterlimit="10" stroke-width="2.85"/><polygon points="816.68 675.68 771.35 675.68 771.35 687.35 828.35 687.35 828.35 630.35 816.68 630.35 816.68 675.68" fill="none" stroke="#e7d6e1" stroke-miterlimit="10" stroke-width="2.85"/><polygon points="743.3 602.3 785.15 602.3 785.15 616.1 796.29 616.1 796.29 591.16 732.16 591.16 732.16 616.1 743.3 616.1 743.3 602.3" fill="none" stroke="#e7d6e1" stroke-miterlimit="10" stroke-width="2.85"/><polygon points="785.15 644.15 743.3 644.15 743.3 630.35 732.16 630.35 732.16 655.29 796.29 655.29 796.29 630.35 785.15 630.35 785.15 644.15" fill="none" stroke="#e7d6e1" stroke-miterlimit="10" stroke-width="2.85"/><polygon points="851.12 675.68 851.12 630.35 839.45 630.35 839.45 687.35 896.45 687.35 896.45 675.68 851.12 675.68" fill="none" stroke="#e7d6e1" stroke-miterlimit="10" stroke-width="2.85"/><polygon points="851.12 570.77 896.45 570.77 896.45 559.1 839.45 559.1 839.45 616.1 851.12 616.1 851.12 570.77" fill="none" stroke="#e7d6e1" stroke-miterlimit="10" stroke-width="2.85"/><polygon points="956.04 570.77 956.04 616.1 967.7 616.1 967.7 559.1 910.7 559.1 910.7 570.77 956.04 570.77" fill="none" stroke="#e7d6e1" stroke-miterlimit="10" stroke-width="2.85"/><polygon points="956.04 675.68 910.7 675.68 910.7 687.35 967.7 687.35 967.7 630.35 956.04 630.35 956.04 675.68" fill="none" stroke="#e7d6e1" stroke-miterlimit="10" stroke-width="2.85"/><polygon points="882.65 602.3 924.51 602.3 924.51 616.1 935.64 616.1 935.64 591.16 871.52 591.16 871.52 616.1 882.65 616.1 882.65 602.3" fill="none" stroke="#e7d6e1" stroke-miterlimit="10" stroke-width="2.85"/><polygon points="924.51 644.15 882.65 644.15 882.65 630.35 871.52 630.35 871.52 655.29 935.64 655.29 935.64 630.35 924.51 630.35 924.51 644.15" fill="none" stroke="#e7d6e1" stroke-miterlimit="10" stroke-width="2.85"/><polygon points="13.09 431.03 58.42 431.03 58.42 419.37 1.43 419.37 1.43 476.37 13.09 476.37 13.09 431.03" fill="none" stroke="#e7d6e1" stroke-miterlimit="10" stroke-width="2.85"/><polygon points="118.01 431.03 118.01 476.37 129.68 476.37 129.68 419.37 72.67 419.37 72.67 431.03 118.01 431.03" fill="none" stroke="#e7d6e1" stroke-miterlimit="10" stroke-width="2.85"/><polygon points="118.01 535.95 72.67 535.95 72.67 547.62 129.68 547.62 129.68 490.62 118.01 490.62 118.01 535.95" fill="none" stroke="#e7d6e1" stroke-miterlimit="10" stroke-width="2.85"/><polygon points="13.09 535.95 13.09 490.62 1.43 490.62 1.43 547.62 58.42 547.62 58.42 535.95 13.09 535.95" fill="none" stroke="#e7d6e1" stroke-miterlimit="10" stroke-width="2.85"/><polygon points="44.62 462.56 86.48 462.56 86.48 476.37 97.61 476.37 97.61 451.43 33.49 451.43 33.49 476.37 44.62 476.37 44.62 462.56" fill="none" stroke="#e7d6e1" stroke-miterlimit="10" stroke-width="2.85"/><polygon points="86.48 504.42 44.62 504.42 44.62 490.62 33.49 490.62 33.49 515.55 97.61 515.55 97.61 490.62 86.48 490.62 86.48 504.42" fill="none" stroke="#e7d6e1" stroke-miterlimit="10" stroke-width="2.85"/><polygon points="13.09 570.39 58.42 570.39 58.42 558.72 1.43 558.72 1.43 615.72 13.09 615.72 13.09 570.39" fill="none" stroke="#e7d6e1" stroke-miterlimit="10" stroke-width="2.85"/><polygon points="118.01 570.39 118.01 615.72 129.68 615.72 129.68 558.72 72.67 558.72 72.67 570.39 118.01 570.39" fill="none" stroke="#e7d6e1" stroke-miterlimit="10" stroke-width="2.85"/><polygon points="118.01 675.3 72.67 675.3 72.67 686.97 129.68 686.97 129.68 629.97 118.01 629.97 118.01 675.3" fill="none" stroke="#e7d6e1" stroke-miterlimit="10" stroke-width="2.85"/><polygon points="13.09 675.3 13.09 629.97 1.43 629.97 1.43 686.97 58.42 686.97 58.42 675.3 13.09 675.3" fill="none" stroke="#e7d6e1" stroke-miterlimit="10" stroke-width="2.85"/><polygon points="44.62 601.92 86.48 601.92 86.48 615.72 97.61 615.72 97.61 590.78 33.49 590.78 33.49 615.72 44.62 615.72 44.62 601.92" fill="none" stroke="#e7d6e1" stroke-miterlimit="10" stroke-width="2.85"/><polygon points="86.48 643.77 44.62 643.77 44.62 629.97 33.49 629.97 33.49 654.91 97.61 654.91 97.61 629.97 86.48 629.97 86.48 643.77" fill="none" stroke="#e7d6e1" stroke-miterlimit="10" stroke-width="2.85"/><polygon points="154.06 675.68 154.06 630.35 142.4 630.35 142.4 687.35 199.4 687.35 199.4 675.68 154.06 675.68" fill="none" stroke="#e7d6e1" stroke-miterlimit="10" stroke-width="2.85"/><polygon points="154.06 570.77 199.4 570.77 199.4 559.1 142.4 559.1 142.4 616.1 154.06 616.1 154.06 570.77" fill="none" stroke="#e7d6e1" stroke-miterlimit="10" stroke-width="2.85"/><polygon points="258.98 570.77 258.98 616.1 270.65 616.1 270.65 559.1 213.65 559.1 213.65 570.77 258.98 570.77" fill="none" stroke="#e7d6e1" stroke-miterlimit="10" stroke-width="2.85"/><polygon points="258.98 675.68 213.65 675.68 213.65 687.35 270.65 687.35 270.65 630.35 258.98 630.35 258.98 675.68" fill="none" stroke="#e7d6e1" stroke-miterlimit="10" stroke-width="2.85"/><polygon points="185.59 602.3 227.45 602.3 227.45 616.1 238.58 616.1 238.58 591.16 174.46 591.16 174.46 616.1 185.59 616.1 185.59 602.3" fill="none" stroke="#e7d6e1" stroke-miterlimit="10" stroke-width="2.85"/><polygon points="227.45 644.15 185.59 644.15 185.59 630.35 174.46 630.35 174.46 655.29 238.58 655.29 238.58 630.35 227.45 630.35 227.45 644.15" fill="none" stroke="#e7d6e1" stroke-miterlimit="10" stroke-width="2.85"/><polygon points="293.42 675.68 293.42 630.35 281.75 630.35 281.75 687.35 338.75 687.35 338.75 675.68 293.42 675.68" fill="none" stroke="#e7d6e1" stroke-miterlimit="10" stroke-width="2.85"/><polygon points="293.42 570.77 338.75 570.77 338.75 559.1 281.75 559.1 281.75 616.1 293.42 616.1 293.42 570.77" fill="none" stroke="#e7d6e1" stroke-miterlimit="10" stroke-width="2.85"/><polygon points="398.33 570.77 398.33 616.1 410 616.1 410 559.1 353 559.1 353 570.77 398.33 570.77" fill="none" stroke="#e7d6e1" stroke-miterlimit="10" stroke-width="2.85"/><polygon points="398.33 675.68 353 675.68 353 687.35 410 687.35 410 630.35 398.33 630.35 398.33 675.68" fill="none" stroke="#e7d6e1" stroke-miterlimit="10" stroke-width="2.85"/><polygon points="324.95 602.3 366.8 602.3 366.8 616.1 377.94 616.1 377.94 591.16 313.81 591.16 313.81 616.1 324.95 616.1 324.95 602.3" fill="none" stroke="#e7d6e1" stroke-miterlimit="10" stroke-width="2.85"/><polygon points="366.8 644.15 324.95 644.15 324.95 630.35 313.81 630.35 313.81 655.29 377.94 655.29 377.94 630.35 366.8 630.35 366.8 644.15" fill="none" stroke="#e7d6e1" stroke-miterlimit="10" stroke-width="2.85"/><polygon points="851.09 990.45 896.42 990.45 896.42 978.78 839.42 978.78 839.42 1035.78 851.09 1035.78 851.09 990.45" fill="none" stroke="#e7d6e1" stroke-miterlimit="10" stroke-width="2.85"/><polygon points="956.01 990.45 956.01 1035.78 967.67 1035.78 967.67 978.78 910.67 978.78 910.67 990.45 956.01 990.45" fill="none" stroke="#e7d6e1" stroke-miterlimit="10" stroke-width="2.85"/><polygon points="956.01 1095.36 910.67 1095.36 910.67 1107.03 967.67 1107.03 967.67 1050.03 956.01 1050.03 956.01 1095.36" fill="none" stroke="#e7d6e1" stroke-miterlimit="10" stroke-width="2.85"/><polygon points="851.09 1095.36 851.09 1050.03 839.42 1050.03 839.42 1107.03 896.42 1107.03 896.42 1095.36 851.09 1095.36" fill="none" stroke="#e7d6e1" stroke-miterlimit="10" stroke-width="2.85"/><polygon points="882.62 1021.98 924.48 1021.98 924.48 1035.78 935.61 1035.78 935.61 1010.84 871.49 1010.84 871.49 1035.78 882.62 1035.78 882.62 1021.98" fill="none" stroke="#e7d6e1" stroke-miterlimit="10" stroke-width="2.85"/><polygon points="924.48 1063.83 882.62 1063.83 882.62 1050.03 871.49 1050.03 871.49 1074.96 935.61 1074.96 935.61 1050.03 924.48 1050.03 924.48 1063.83" fill="none" stroke="#e7d6e1" stroke-miterlimit="10" stroke-width="2.85"/><polygon points="851.09 1129.8 896.42 1129.8 896.42 1118.13 839.42 1118.13 839.42 1175.13 851.09 1175.13 851.09 1129.8" fill="none" stroke="#e7d6e1" stroke-miterlimit="10" stroke-width="2.85"/><polygon points="956.01 1129.8 956.01 1175.13 967.67 1175.13 967.67 1118.13 910.67 1118.13 910.67 1129.8 956.01 1129.8" fill="none" stroke="#e7d6e1" stroke-miterlimit="10" stroke-width="2.85"/><polygon points="956.01 1234.71 910.67 1234.71 910.67 1246.38 967.67 1246.38 967.67 1189.38 956.01 1189.38 956.01 1234.71" fill="none" stroke="#e7d6e1" stroke-miterlimit="10" stroke-width="2.85"/><polygon points="851.09 1234.71 851.09 1189.38 839.42 1189.38 839.42 1246.38 896.42 1246.38 896.42 1234.71 851.09 1234.71" fill="none" stroke="#e7d6e1" stroke-miterlimit="10" stroke-width="2.85"/><polygon points="882.62 1161.33 924.48 1161.33 924.48 1175.13 935.61 1175.13 935.61 1150.19 871.49 1150.19 871.49 1175.13 882.62 1175.13 882.62 1161.33" fill="none" stroke="#e7d6e1" stroke-miterlimit="10" stroke-width="2.85"/><polygon points="924.48 1203.18 882.62 1203.18 882.62 1189.38 871.49 1189.38 871.49 1214.32 935.61 1214.32 935.61 1189.38 924.48 1189.38 924.48 1203.18" fill="none" stroke="#e7d6e1" stroke-miterlimit="10" stroke-width="2.85"/><polygon points="851.09 711.74 896.42 711.74 896.42 700.07 839.42 700.07 839.42 757.07 851.09 757.07 851.09 711.74" fill="none" stroke="#e7d6e1" stroke-miterlimit="10" stroke-width="2.85"/><polygon points="956.01 711.74 956.01 757.07 967.67 757.07 967.67 700.07 910.67 700.07 910.67 711.74 956.01 711.74" fill="none" stroke="#e7d6e1" stroke-miterlimit="10" stroke-width="2.85"/><polygon points="956.01 816.65 910.67 816.65 910.67 828.32 967.67 828.32 967.67 771.32 956.01 771.32 956.01 816.65" fill="none" stroke="#e7d6e1" stroke-miterlimit="10" stroke-width="2.85"/><polygon points="851.09 816.65 851.09 771.32 839.42 771.32 839.42 828.32 896.42 828.32 896.42 816.65 851.09 816.65" fill="none" stroke="#e7d6e1" stroke-miterlimit="10" stroke-width="2.85"/><polygon points="882.62 743.27 924.48 743.27 924.48 757.07 935.61 757.07 935.61 732.13 871.49 732.13 871.49 757.07 882.62 757.07 882.62 743.27" fill="none" stroke="#e7d6e1" stroke-miterlimit="10" stroke-width="2.85"/><polygon points="924.48 785.13 882.62 785.13 882.62 771.32 871.49 771.32 871.49 796.26 935.61 796.26 935.61 771.32 924.48 771.32 924.48 785.13" fill="none" stroke="#e7d6e1" stroke-miterlimit="10" stroke-width="2.85"/><polygon points="851.09 851.09 896.42 851.09 896.42 839.42 839.42 839.42 839.42 896.42 851.09 896.42 851.09 851.09" fill="none" stroke="#e7d6e1" stroke-miterlimit="10" stroke-width="2.85"/><polygon points="956.01 851.09 956.01 896.42 967.67 896.42 967.67 839.42 910.67 839.42 910.67 851.09 956.01 851.09" fill="none" stroke="#e7d6e1" stroke-miterlimit="10" stroke-width="2.85"/><polygon points="956.01 956.01 910.67 956.01 910.67 967.67 967.67 967.67 967.67 910.67 956.01 910.67 956.01 956.01" fill="none" stroke="#e7d6e1" stroke-miterlimit="10" stroke-width="2.85"/><polygon points="851.09 956.01 851.09 910.67 839.42 910.67 839.42 967.67 896.42 967.67 896.42 956.01 851.09 956.01" fill="none" stroke="#e7d6e1" stroke-miterlimit="10" stroke-width="2.85"/><polygon points="882.62 882.62 924.48 882.62 924.48 896.42 935.61 896.42 935.61 871.49 871.49 871.49 871.49 896.42 882.62 896.42 882.62 882.62" fill="none" stroke="#e7d6e1" stroke-miterlimit="10" stroke-width="2.85"/><polygon points="924.48 924.48 882.62 924.48 882.62 910.67 871.49 910.67 871.49 935.61 935.61 935.61 935.61 910.67 924.48 910.67 924.48 924.48" fill="none" stroke="#e7d6e1" stroke-miterlimit="10" stroke-width="2.85"/><polygon points="13.09 152.44 58.42 152.44 58.42 140.78 1.43 140.78 1.43 197.78 13.09 197.78 13.09 152.44" fill="none" stroke="#e7d6e1" stroke-miterlimit="10" stroke-width="2.85"/><polygon points="118.01 152.44 118.01 197.78 129.68 197.78 129.68 140.78 72.67 140.78 72.67 152.44 118.01 152.44" fill="none" stroke="#e7d6e1" stroke-miterlimit="10" stroke-width="2.85"/><polygon points="118.01 257.36 72.67 257.36 72.67 269.03 129.68 269.03 129.68 212.03 118.01 212.03 118.01 257.36" fill="none" stroke="#e7d6e1" stroke-miterlimit="10" stroke-width="2.85"/><polygon points="13.09 257.36 13.09 212.03 1.43 212.03 1.43 269.03 58.42 269.03 58.42 257.36 13.09 257.36" fill="none" stroke="#e7d6e1" stroke-miterlimit="10" stroke-width="2.85"/><polygon points="44.62 183.97 86.48 183.97 86.48 197.78 97.61 197.78 97.61 172.84 33.49 172.84 33.49 197.78 44.62 197.78 44.62 183.97" fill="none" stroke="#e7d6e1" stroke-miterlimit="10" stroke-width="2.85"/><polygon points="86.48 225.83 44.62 225.83 44.62 212.03 33.49 212.03 33.49 236.97 97.61 236.97 97.61 212.03 86.48 212.03 86.48 225.83" fill="none" stroke="#e7d6e1" stroke-miterlimit="10" stroke-width="2.85"/><polygon points="13.09 291.8 58.42 291.8 58.42 280.13 1.43 280.13 1.43 337.13 13.09 337.13 13.09 291.8" fill="none" stroke="#e7d6e1" stroke-miterlimit="10" stroke-width="2.85"/><polygon points="118.01 291.8 118.01 337.13 129.68 337.13 129.68 280.13 72.67 280.13 72.67 291.8 118.01 291.8" fill="none" stroke="#e7d6e1" stroke-miterlimit="10" stroke-width="2.85"/><polygon points="118.01 396.71 72.67 396.71 72.67 408.38 129.68 408.38 129.68 351.38 118.01 351.38 118.01 396.71" fill="none" stroke="#e7d6e1" stroke-miterlimit="10" stroke-width="2.85"/><polygon points="13.09 396.71 13.09 351.38 1.43 351.38 1.43 408.38 58.42 408.38 58.42 396.71 13.09 396.71" fill="none" stroke="#e7d6e1" stroke-miterlimit="10" stroke-width="2.85"/><polygon points="44.62 323.33 86.48 323.33 86.48 337.13 97.61 337.13 97.61 312.19 33.49 312.19 33.49 337.13 44.62 337.13 44.62 323.33" fill="none" stroke="#e7d6e1" stroke-miterlimit="10" stroke-width="2.85"/><polygon points="86.48 365.18 44.62 365.18 44.62 351.38 33.49 351.38 33.49 376.32 97.61 376.32 97.61 351.38 86.48 351.38 86.48 365.18" fill="none" stroke="#e7d6e1" stroke-miterlimit="10" stroke-width="2.85"/><polygon points="13.09 13.09 58.42 13.09 58.42 1.43 1.43 1.43 1.43 58.42 13.09 58.42 13.09 13.09" fill="none" stroke="#e7d6e1" stroke-miterlimit="10" stroke-width="2.85"/><polygon points="118.01 13.09 118.01 58.42 129.68 58.42 129.68 1.43 72.67 1.43 72.67 13.09 118.01 13.09" fill="none" stroke="#e7d6e1" stroke-miterlimit="10" stroke-width="2.85"/><polygon points="118.01 118.01 72.67 118.01 72.67 129.68 129.68 129.68 129.68 72.67 118.01 72.67 118.01 118.01" fill="none" stroke="#e7d6e1" stroke-miterlimit="10" stroke-width="2.85"/><polygon points="13.09 118.01 13.09 72.67 1.43 72.67 1.43 129.68 58.42 129.68 58.42 118.01 13.09 118.01" fill="none" stroke="#e7d6e1" stroke-miterlimit="10" stroke-width="2.85"/><polygon points="44.62 44.62 86.48 44.62 86.48 58.42 97.61 58.42 97.61 33.49 33.49 33.49 33.49 58.42 44.62 58.42 44.62 44.62" fill="none" stroke="#e7d6e1" stroke-miterlimit="10" stroke-width="2.85"/><polygon points="86.48 86.48 44.62 86.48 44.62 72.67 33.49 72.67 33.49 97.61 97.61 97.61 97.61 72.67 86.48 72.67 86.48 86.48" fill="none" stroke="#e7d6e1" stroke-miterlimit="10" stroke-width="2.85"/></svg>